<svg xmlns="http://www.w3.org/2000/svg" version="1.1" xmlns:xlink="http://www.w3.org/1999/xlink" xmlns:svgjs="http://svgjs.dev/svgjs" width="1500" height="1500" viewBox="0 0 1500 1500"><rect width="1500" height="1500" fill="#000000"></rect><g transform="matrix(0.6666666666666666,0,0,0.6666666666666666,249.39393939393938,438.5856950067477)"><svg viewBox="0 0 396 247" data-background-color="#c40913" preserveAspectRatio="xMidYMid meet" height="935" width="1500" xmlns="http://www.w3.org/2000/svg" xmlns:xlink="http://www.w3.org/1999/xlink"><g id="tight-bounds" transform="matrix(1,0,0,1,0.2400000000000091,-0.09999999999999432)"><svg viewBox="0 0 395.52 247.2" height="247.2" width="395.52"><g><svg></svg></g><g><svg viewBox="0 0 395.52 247.2" height="247.2" width="395.52"><g transform="matrix(1,0,0,1,75.54432,89.61707458325463)"><svg viewBox="0 0 244.43135999999998 67.9658508334907" height="67.9658508334907" width="244.43135999999998"><g><svg viewBox="0 0 384.31976967539543 106.86280245758739" height="67.9658508334907" width="244.43135999999998"><g transform="matrix(1,0,0,1,139.88840967539545,33.022157061951184)"><svg viewBox="0 0 244.43135999999998 40.818488333685025" height="40.818488333685025" width="244.43135999999998"><g id="textblocktransform"><svg viewBox="0 0 244.43135999999998 40.818488333685025" height="40.818488333685025" width="244.43135999999998" id="textblock"><g><svg viewBox="0 0 244.43135999999998 40.818488333685025" height="40.818488333685025" width="244.43135999999998"><g transform="matrix(1,0,0,1,0,0)"><svg width="244.43135999999998" viewBox="-4.6 -29.6 227.2341314163498 37.95" height="40.818488333685025" data-palette-color="#000000"><g transform="matrix(1,0,0,1,0,0)"><g><svg width="18.402754277566537" viewBox="3.16 -36.86 87.41 37.36" height="7.865" data-palette-color="#000000" id="scriptelement" x="204.23137713878327" y="-7.865"><path d="M26.44 0L3.16 0 3.16-36.36 10.85-36.36 10.85-6.34 26.44-6.34 26.44 0ZM54.81 0L31.53 0 31.53-36.36 39.22-36.36 39.22-6.34 54.81-6.34 54.81 0ZM90.57-23.63L90.57-23.63 82.79-23.63Q82.58-25.14 81.92-26.32 81.26-27.5 80.23-28.34 79.2-29.17 77.86-29.62 76.52-30.06 74.96-30.06L74.96-30.06Q72.14-30.06 70.04-28.67 67.95-27.27 66.79-24.62 65.64-21.96 65.64-18.18L65.64-18.18Q65.64-14.29 66.8-11.65 67.96-9 70.06-7.65 72.15-6.3 74.91-6.3L74.91-6.3Q76.45-6.3 77.77-6.71 79.1-7.12 80.13-7.91 81.16-8.7 81.84-9.84 82.52-10.97 82.79-12.43L82.79-12.43 90.57-12.39Q90.26-9.89 89.07-7.57 87.87-5.26 85.85-3.44 83.84-1.62 81.06-0.56 78.28 0.5 74.78 0.5L74.78 0.5Q69.92 0.5 66.09-1.7 62.26-3.91 60.05-8.08 57.84-12.25 57.84-18.18L57.84-18.18Q57.84-24.13 60.08-28.3 62.32-32.48 66.15-34.67 69.99-36.86 74.78-36.86L74.78-36.86Q77.94-36.86 80.65-35.97 83.36-35.09 85.45-33.39 87.55-31.69 88.87-29.24 90.19-26.79 90.57-23.63Z" opacity="1" transform="matrix(1,0,0,1,0,0)" fill="#ffffff" class="undefined-123" data-fill-palette-color="primary" id="yy-123"></path></svg></g></g><g class="wordmark-text-0" data-fill-palette-color="primary" id="text-0"><path d="M29.5-10.95L29.5-10.95 17.1-12.6Q9.5 4.65 2.35 6.85L2.35 6.85Q1.05 7.3 0.05 7.3L0.05 7.3Q-3.7 7.3-4.55 4.15L-4.55 4.15Q-4.6 3.95-4.6 3.73-4.6 3.5-4.53 3.18-4.45 2.85-4.2 2.95-3.95 3.05-3.7 3.9L-3.7 3.9Q-3.25 5.35-1.8 5.75L-1.8 5.75Q-0.7 5.95 0.13 5.95 0.95 5.95 1.55 5.75L1.55 5.75Q8.85 3.45 15.2-12.85L15.2-12.85 12.55-13Q11.85-13.05 11.25-13.05L11.25-13.05Q4.9-13.05 3.45-8.95L3.45-8.95Q3.2-8.4 3.2-7.9 3.2-7.4 3.5-6.9 3.8-6.4 3.33-6.28 2.85-6.15 2.55-6.6L2.55-6.6Q2-7.6 2-8.45L2-8.45Q2-11.5 3.13-12.98 4.25-14.45 5.75-14.9L5.75-14.9Q7.55-15.4 9.75-15.4L9.75-15.4 12.8-15.1Q14.4-14.95 15.85-14.65L15.85-14.65Q17.05-17.85 18.75-23.25L18.75-23.25Q16.1-20.9 12.25-20.5L12.25-20.5Q11.75-20.45 11.73-20.85 11.7-21.25 12.3-21.35L12.3-21.35Q14.45-21.55 16.73-23.55 19-25.55 20.2-28.25L20.2-28.25Q20.3-28.85 21.85-28.85 23.4-28.85 23.35-28.25L23.35-28.25Q23.05-27.5 21.13-22.48 19.2-17.45 17.8-14.25L17.8-14.25Q19.1-14 21.6-13.4L21.6-13.4Q26.7-12.25 29.85-11.9L29.85-11.9Q32.75-18.05 33.48-19.78 34.2-21.5 34.2-21.95 34.2-22.4 34.05-22.65L34.05-22.65Q34.2-24.05 36.23-26.33 38.25-28.6 40.05-28.6L40.05-28.6Q40.85-28.6 41.98-28.03 43.1-27.45 43.1-26.55L43.1-26.55Q43.1-26.35 42.85-26.5 42.6-26.65 42.5-26.65L42.5-26.65Q41.25-26.65 39.6-24.88 37.95-23.1 36.35-20.3L36.35-20.3Q33.9-15.95 32-11.7L32-11.7Q36.3-11.7 37.75-13.5L37.75-13.5Q38-13.95 38.25-13.63 38.5-13.3 38.08-12.68 37.65-12.05 36.2-11.45 34.75-10.85 31.6-10.85L31.6-10.85Q29.25-5.3 29.25-2.15L29.25-2.15Q29.25 0.3 30.68 0.3 32.1 0.3 34.93-1.9 37.75-4.1 40.25-7.45L40.25-7.45Q40.4-7.65 40.7-7.53 41-7.4 40.88-7.08 40.75-6.75 40.1-5.8L40.1-5.8Q38-2.95 34.95-0.5L34.95-0.5Q32.7 1.25 30.05 1.25L30.05 1.25Q28.7 1.25 27.98 0.45 27.25-0.35 27.18-1.05 27.1-1.75 27.1-2.35 27.1-2.95 27.3-4.2L27.3-4.2Q27.8-7.4 29.5-10.95ZM42.05 0.55L42.05 0.55Q41.25 0.55 40.32 0.08 39.4-0.4 38.75-1.28 38.1-2.15 38.1-3.15 38.1-4.15 38.55-5.05L38.55-5.05Q39.55-7.15 41.77-9.13 44-11.1 46.4-12.5 48.8-13.9 50.2-14.25 51.6-14.6 52.92-14.6 54.25-14.6 55.2-13.93 56.15-13.25 56.15-12.5L56.15-12.5Q56.15-12.25 56.1-12.2 56.05-12.15 55.85-12.25L55.85-12.25Q55.25-13.2 53.37-13.2 51.5-13.2 49.12-11.98 46.75-10.75 44.65-8.9L44.65-8.9Q42.9-7.25 41.57-5.18 40.25-3.1 40.25-2.15L40.25-2.15Q40.25-0.3 41.3-0.3 42.35-0.3 44.5-2L44.5-2Q48.05-5 49.35-6.4L49.35-6.4Q53.95-11.35 54.3-11.35L54.3-11.35Q54.9-11.35 55.75-11 56.6-10.65 56.3-10.15L56.3-10.15Q53.75-6.55 53.3-2.9L53.3-2.9Q53.25-2.45 53.25-1.75 53.25-1.05 53.65-0.6L53.65-0.6Q54.4 0.2 55.7-0.5 57-1.2 59.32-3.3 61.65-5.4 63.05-7.4L63.05-7.4Q63.25-7.65 63.5-7.53 63.75-7.4 63.75-7.3L63.75-7.3Q63.75-6.55 61.37-4.03 59-1.5 57.75-0.6L57.75-0.6Q55.4 1.15 53.4 1.15L53.4 1.15Q51.5 1.15 50.85-0.75L50.85-0.75Q50.7-1.35 50.7-2.1L50.7-2.1Q50.7-4.35 51.65-6.85L51.65-6.85Q51.45-6.75 49.8-4.85 48.15-2.95 45.97-1.2 43.8 0.55 42.05 0.55ZM64.7 0.4L64.7 0.4Q62.9 1.3 62.4 1.3 61.9 1.3 61.9 1.15 61.9 1 61.97 0.83 62.05 0.65 62.67-1.05 63.3-2.75 64.25-5.35 65.2-7.95 65.9-9.7L65.9-9.7Q64.75-8.45 63.2-6.25L63.2-6.25Q62.95-5.9 62.52-6.05 62.1-6.2 62.8-7.1L62.8-7.1Q64.45-9.1 66.95-12.85L66.95-12.85Q66.2-13.25 66.2-13.63 66.2-14 66.3-14.2L66.3-14.2Q66.55-14.8 67.2-14.45L67.2-14.45Q67.5-14.35 67.6-14.35L67.6-14.35Q69.8-20.15 73.1-24.7L73.1-24.7Q74.9-27.25 76.85-28.43 78.8-29.6 80.5-29.6L80.5-29.6Q81.7-29.6 82.8-29.03 83.9-28.45 83.9-27.15L83.9-27.15Q83.9-24.65 79.6-19.9L79.6-19.9Q77.3-17.45 74.45-15.4 71.6-13.35 69.4-12.4L69.4-12.4Q67.45-8.1 65.95-3.4L65.95-3.4 69.2-7.65Q69.15-8.1 69.15-8.6L69.15-8.6Q69.15-10.1 69.8-10.45L69.8-10.45Q70.15-10.6 70.25-9.85L70.25-9.85 70.45-9.15Q74.3-13.65 76-14.45L76-14.45Q76.8-14.85 77.45-14.85 78.1-14.85 78.6-14.5 79.1-14.15 79.1-13.75L79.1-13.75Q79.1-13.05 77.95-12.5L77.95-12.5Q72.45-9.85 70.7-8L70.7-8Q71.9-3.8 73.05-1.4 74.2 1 76.67 4 79.15 7 81.2 7L81.2 7Q82.9 7 82.6 5.5L82.6 5.5Q82.4 4.15 81.77 3.18 81.15 2.2 81.65 2.2L81.65 2.2Q82.1 2.25 82.6 2.65L82.6 2.65Q82.9 3 83.3 3.88 83.7 4.75 83.7 5.35L83.7 5.35Q83.65 6.75 82.35 7.55 81.05 8.35 79.85 8.35L79.85 8.35Q77.5 8.35 75.25 6.03 73 3.7 71.5 0.4 70-2.9 69.4-6.35L69.4-6.35Q68.5-5.1 67.4-3.35L67.4-3.35Q65.15 0.1 64.7 0.4ZM81.05-24.3Q82.4-26.55 82.4-27.45 82.4-28.35 81.65-28.35 80.9-28.35 79.75-27.45L79.75-27.45Q76.55-25 74.35-21.88 72.15-18.75 70-14.1L70-14.1Q74.65-16.25 78.45-20.6L78.45-20.6Q79.7-22.05 81.05-24.3ZM84.39-13.85L84.39-13.85Q85.64-13.85 85.89-13.05L85.89-13.05Q85.99-12.6 85.77-12.18 85.54-11.75 85.44-11.5 85.34-11.25 85.29-11.1L85.29-11.1Q85.04-10.6 84.79-10.15L84.79-10.15Q81.94-4.45 81.79-2.9L81.79-2.9Q81.74-2.45 81.74-1.75 81.74-1.05 82.14-0.6L82.14-0.6Q82.84 0.2 84.14-0.5 85.44-1.2 87.77-3.3 90.09-5.4 91.54-7.4L91.54-7.4Q91.74-7.65 91.99-7.53 92.24-7.4 92.24-7.28 92.24-7.15 92.14-7L92.14-7Q91.39-5.65 89.44-3.55L89.44-3.55Q86.24-0.1 84.09 0.7L84.09 0.7Q82.84 1.15 81.99 1.15L81.99 1.15Q79.99 1.15 79.34-0.75L79.34-0.75Q79.24-1.1 79.24-1.6L79.24-1.6Q79.24-3.35 80.84-6.9L80.84-6.9Q80.59-6.35 78.89-4.4L78.89-4.4Q78.44-3.9 78.19-4.4L78.19-4.4Q78.14-4.5 78.14-4.67 78.14-4.85 78.34-5.1L78.34-5.1Q80.79-8.15 82.19-10.25L82.19-10.25Q82.09-10.5 82.29-10.9L82.29-10.9Q83.29-13.7 84.04-13.85L84.04-13.85Q84.19-13.85 84.39-13.85ZM88.34-20.5L88.34-20.5 87.94-18.9Q87.94-18.45 87.29-17.45 86.64-16.45 86.29-16.45L86.29-16.45Q84.14-16.45 84.14-17.5L84.14-17.5Q84.14-17.7 86.29-19.35L86.29-19.35 87.14-20Q87.94-20.7 88.14-20.7 88.34-20.7 88.34-20.5ZM121.14-26.4L121.14-26.4Q121.14-25.3 120.24-23.85L120.24-23.85Q119.49-22.5 118.57-22 117.64-21.5 117.64-22.1L117.64-22.1Q117.64-22.15 118.19-22.7L118.19-22.7Q119.84-24.25 119.84-25.25L119.84-25.25Q119.84-27.4 115.59-27.4L115.59-27.4Q113.79-27.4 110.84-26.73 107.89-26.05 105.14-24.55L105.14-24.55Q101.94-22.8 101.94-21.5L101.94-21.5Q101.94-20.45 103.89-19.5L103.89-19.5Q104.94-19 108.07-17.82 111.19-16.65 113.12-15.78 115.04-14.9 116.77-13.3 118.49-11.7 118.49-9.75 118.49-7.8 116.19-5.5L116.19-5.5Q112.69-2.15 107.09 0.08 101.49 2.3 97.49 2.3L97.49 2.3Q89.59 2.3 89.59-2.15 89.59-6.6 94.44-9.7L94.44-9.7Q98.44-12.45 102.84-12.45L102.84-12.45Q103.89-12.45 103.79-12.1L103.79-12.1Q103.69-11.75 102.29-11.73 100.89-11.7 98.69-10.78 96.49-9.85 94.59-8.1L94.59-8.1Q92.09-5.85 92.09-3.6L92.09-3.6Q92.09-2.2 93.44-1.1 94.79 0 98.59 0 102.39 0 106.09-1.2L106.09-1.2Q114.09-3.85 116.09-7L116.09-7Q116.89-8.15 116.89-8.95L116.89-8.95Q116.89-11.25 114.09-12.55L114.09-12.55Q110.84-14.05 104.99-16L104.99-16Q102.74-16.75 101.17-17.98 99.59-19.2 99.59-20.93 99.59-22.65 101.47-24.33 103.34-26 105.99-27L105.99-27Q111.69-29.15 115.64-29.15L115.64-29.15Q121.14-29.15 121.14-26.4ZM122.99 0.55L122.99 0.55Q122.19 0.55 121.26 0.08 120.34-0.4 119.69-1.28 119.04-2.15 119.04-3.15 119.04-4.15 119.49-5.05L119.49-5.05Q120.49-7.15 122.71-9.13 124.94-11.1 127.34-12.5 129.74-13.9 131.14-14.25 132.54-14.6 133.86-14.6 135.19-14.6 136.14-13.93 137.09-13.25 137.09-12.5L137.09-12.5Q137.09-12.25 137.04-12.2 136.99-12.15 136.79-12.25L136.79-12.25Q136.19-13.2 134.31-13.2 132.44-13.2 130.06-11.98 127.69-10.75 125.59-8.9L125.59-8.9Q123.84-7.25 122.51-5.18 121.19-3.1 121.19-2.15L121.19-2.15Q121.19-0.3 122.24-0.3 123.29-0.3 125.44-2L125.44-2Q128.99-5 130.29-6.4L130.29-6.4Q134.89-11.35 135.24-11.35L135.24-11.35Q135.84-11.35 136.69-11 137.54-10.65 137.24-10.15L137.24-10.15Q134.69-6.55 134.24-2.9L134.24-2.9Q134.19-2.45 134.19-1.75 134.19-1.05 134.59-0.6L134.59-0.6Q135.34 0.2 136.64-0.5 137.94-1.2 140.26-3.3 142.59-5.4 143.99-7.4L143.99-7.4Q144.19-7.65 144.44-7.53 144.69-7.4 144.69-7.3L144.69-7.3Q144.69-6.55 142.31-4.03 139.94-1.5 138.69-0.6L138.69-0.6Q136.34 1.15 134.34 1.15L134.34 1.15Q132.44 1.15 131.79-0.75L131.79-0.75Q131.64-1.35 131.64-2.1L131.64-2.1Q131.64-4.35 132.59-6.85L132.59-6.85Q132.39-6.75 130.74-4.85 129.09-2.95 126.91-1.2 124.74 0.55 122.99 0.55ZM151.01-12.5Q150.28-11.9 148.36-9.38 146.44-6.85 145.71-4.9 144.99-2.95 144.99-1.7 144.99-0.45 146.06-0.45 147.14-0.45 149.09-2L149.09-2Q152.24-4.6 156.19-11.65L156.19-11.65Q156.39-12 156.91-12 157.44-12 158.36-11.73 159.28-11.45 159.28-11L159.28-11Q159.28-10.85 159.19-10.7L159.19-10.7Q157.09-7.3 156.53-3L156.53-3Q156.34-1.55 157.03-0.65L157.03-0.65Q157.69 0.25 159.69-0.85L159.69-0.85Q162.79-2.4 165.36-5.7 167.94-9 168.54-11.65L168.54-11.65Q168.74-12.2 168.74-12.85L168.74-12.85Q168.74-15.65 167.14-16.25L167.14-16.25Q166.69-16.45 166.14-16.38 165.59-16.3 165.49-16.43 165.39-16.55 165.44-16.7L165.44-16.7Q165.54-17.15 167.49-17.15L167.49-17.15Q170.74-17.15 170.74-13.8 170.74-10.45 166.94-5.75L166.94-5.75Q164.54-2.9 161.29-0.5L161.29-0.5Q159.49 0.75 157.53 0.75L157.53 0.75Q154.99 0.75 154.39-1.15L154.39-1.15Q154.03-2.05 154.03-4 154.03-5.95 154.53-7.2L154.53-7.2Q153.19-4.5 151.59-2.65 149.99-0.8 148.86-0.13 147.74 0.55 146.59 0.55L146.59 0.55Q144.59 0.55 143.78-0.53 142.99-1.6 142.99-2.85L142.99-2.85Q142.99-4.5 143.71-6.43 144.44-8.35 145.16-9.47 145.89-10.6 147.06-12.18 148.24-13.75 148.59-13.9L148.59-13.9Q149.34-14.1 150.01-14.1 150.69-14.1 151.19-13.9 151.69-13.7 151.71-13.4 151.74-13.1 151.01-12.5ZM173.33 0.55L173.33 0.55Q172.53 0.55 171.61 0.08 170.68-0.4 170.03-1.28 169.38-2.15 169.38-3.15 169.38-4.15 169.83-5.05L169.83-5.05Q170.83-7.15 173.06-9.13 175.28-11.1 177.68-12.5 180.08-13.9 181.48-14.25 182.88-14.6 184.21-14.6 185.53-14.6 186.48-13.93 187.43-13.25 187.43-12.5L187.43-12.5Q187.43-12.25 187.38-12.2 187.33-12.15 187.13-12.25L187.13-12.25Q186.53-13.2 184.66-13.2 182.78-13.2 180.41-11.98 178.03-10.75 175.93-8.9L175.93-8.9Q174.18-7.25 172.86-5.18 171.53-3.1 171.53-2.15L171.53-2.15Q171.53-0.3 172.58-0.3 173.63-0.3 175.78-2L175.78-2Q179.33-5 180.63-6.4L180.63-6.4Q185.23-11.35 185.58-11.35L185.58-11.35Q186.18-11.35 187.03-11 187.88-10.65 187.58-10.15L187.58-10.15Q185.03-6.55 184.58-2.9L184.58-2.9Q184.53-2.45 184.53-1.75 184.53-1.05 184.93-0.6L184.93-0.6Q185.68 0.2 186.98-0.5 188.28-1.2 190.61-3.3 192.93-5.4 194.33-7.4L194.33-7.4Q194.53-7.65 194.78-7.53 195.03-7.4 195.03-7.3L195.03-7.3Q195.03-6.55 192.66-4.03 190.28-1.5 189.03-0.6L189.03-0.6Q186.68 1.15 184.68 1.15L184.68 1.15Q182.78 1.15 182.13-0.75L182.13-0.75Q181.98-1.35 181.98-2.1L181.98-2.1Q181.98-4.35 182.93-6.85L182.93-6.85Q182.73-6.75 181.08-4.85 179.43-2.95 177.26-1.2 175.08 0.55 173.33 0.55Z" fill="#ffffff" data-fill-palette-color="primary"></path></g></svg></g></svg></g></svg></g></svg></g><g><svg viewBox="0 0 130.2521442235324 106.86280245758739" height="106.86280245758739" width="130.2521442235324"><g><svg xmlns="http://www.w3.org/2000/svg" xmlns:xlink="http://www.w3.org/1999/xlink" version="1.1" x="0" y="0" viewBox="4.753 11.427999999999997 90.082 73.906" enable-background="new 0 0 100 100" xml:space="preserve" height="106.86280245758739" width="130.2521442235324" class="icon-icon-0" data-fill-palette-color="accent" id="icon-0"><path fill-rule="evenodd" clip-rule="evenodd" d="M36.135 61.376c-1.571 2.502-5.04 4.251-9.042 4.251H13.794c-4.002 0-7.471-1.749-9.041-4.251h0.585c0-0.059 0.01-0.116 0.031-0.177l13.704-38.127c-0.718-0.025-1.437-0.143-2.163-0.371-0.688-0.218-1.071-0.952-0.854-1.641 0.217-0.688 0.952-1.071 1.64-0.854 2.707 0.855 5.794-0.683 9.261-2.41 5.848-2.913 12.652-6.302 21.641-1.401v-4.967h1.804v4.879c8.858-4.694 15.588-1.343 21.379 1.541 3.467 1.727 6.554 3.265 9.261 2.41 0.688-0.217 1.424 0.165 1.641 0.853 0.217 0.689-0.166 1.423-0.854 1.64-0.57 0.181-1.138 0.291-1.7 0.343l13.785 38.352c0.021 0.06 0.032 0.118 0.032 0.176h0.889c-1.592 2.503-5.107 4.251-9.165 4.251H72.19c-4.057 0-7.573-1.748-9.166-4.251h0.893c0-0.058 0.01-0.116 0.029-0.176L77.769 22.99c-1.963-0.333-3.938-1.218-6.021-2.24-0.372-0.183-0.749-0.371-1.129-0.561-4.966-2.474-10.695-5.327-17.875-2.116-0.679 0.303-1.37 0.66-2.076 1.078-0.085 0.05-0.173 0.089-0.264 0.119V23h1.04v36.072h1.159v16.284c3.522 0.456 6.588 1.742 8.7 3.537h3.667V82.5h1.031v2.834h-33.11V82.5h1.546v-3.606h3.797c2.061-1.75 5.029-3.019 8.443-3.503V59.072h0.902V23h1.021v-3.727c-0.18-0.019-0.359-0.076-0.526-0.174-0.575-0.34-1.142-0.64-1.699-0.903-7.355-3.485-13.199-0.576-18.25 1.941-0.477 0.237-0.947 0.472-1.412 0.698-1.778 0.866-3.48 1.617-5.167 1.991l13.793 38.374c0.021 0.061 0.03 0.118 0.03 0.177H36.135L36.135 61.376zM92.87 61.622L79.454 24.295v37.327H92.87L92.87 61.622zM78.408 61.622V61.62 24.295L65.027 61.522l-0.036 0.1H78.408L78.408 61.622zM20.876 24.048v37.328h13.417L20.876 24.048 20.876 24.048zM6.413 61.376H19.83v-0.003V24.048L6.449 61.276 6.413 61.376z" fill="#ffffff" data-fill-palette-color="accent"></path></svg></g></svg></g></svg></g></svg></g><g><path d="M0 123.6c0-68.262 55.338-123.6 123.6-123.6 55.356 0 102.212 36.39 117.952 86.553l-1.228 0c-15.699-49.506-62.022-85.382-116.724-85.382-67.616 0-122.429 54.814-122.429 122.429 0 67.616 54.814 122.429 122.429 122.429 54.702 0 101.025-35.876 116.724-85.382h1.228c-15.74 50.163-62.596 86.553-117.952 86.553-68.262 0-123.6-55.338-123.6-123.6z" fill="#ffffff" stroke="transparent" data-fill-palette-color="tertiary"></path></g></svg></g><defs></defs></svg><rect width="395.52" height="247.2" fill="none" stroke="none" visibility="hidden"></rect></g></svg></g></svg>